<?xml version="1.0" encoding="utf-8"?>
<!-- Generator: Adobe Illustrator 21.1.0, SVG Export Plug-In . SVG Version: 6.00 Build 0)  -->
<svg version="1.1" id="Capa_1" xmlns="http://www.w3.org/2000/svg" xmlns:xlink="http://www.w3.org/1999/xlink" x="0px" y="0px"
	 viewBox="0 0 42 42" style="enable-background:new 0 0 42 42;" xml:space="preserve">
<style type="text/css">
	.st0{fill:#D2A0A4;}
</style>
<g>
	<path class="st0" d="M26.9,1c0,0.6,0.4,1,1,1H41c0.6,0,1-0.4,1-1s-0.4-1-1-1H27.9C27.4,0,26.9,0.4,26.9,1L26.9,1z"/>
	<path class="st0" d="M26.9,41c0,0.6,0.4,1,1,1H41c0.6,0,1-0.4,1-1s-0.4-1-1-1H27.9C27.4,40,26.9,40.4,26.9,41L26.9,41z"/>
	<path class="st0" d="M1,2h13.5c0.6,0,1-0.4,1-1l0,0c0-0.6-0.4-1-1-1H1C0.4,0,0,0.4,0,1S0.4,2,1,2z"/>
	<path class="st0" d="M0,1v13.5c0,0.6,0.4,1,1,1l0,0c0.6,0,1-0.4,1-1V1c0-0.6-0.4-1-1-1S0,0.4,0,1z"/>
	<path class="st0" d="M40,1v13.5c0,0.6,0.4,1,1,1l0,0c0.6,0,1-0.4,1-1V1c0-0.6-0.4-1-1-1S40,0.4,40,1z"/>
	<path class="st0" d="M0,27.5V41c0,0.6,0.4,1,1,1l0,0c0.6,0,1-0.4,1-1V27.5c0-0.6-0.4-1-1-1S0,26.9,0,27.5z"/>
	<path class="st0" d="M40,27.5V41c0,0.6,0.4,1,1,1l0,0c0.6,0,1-0.4,1-1V27.5c0-0.6-0.4-1-1-1S40,26.9,40,27.5z"/>
	<path class="st0" d="M1,42h13.5c0.6,0,1-0.4,1-1l0,0c0-0.6-0.4-1-1-1H1c-0.6,0-1,0.4-1,1S0.4,42,1,42z"/>
</g>
</svg>
