<?xml version="1.0" encoding="utf-8"?>
<!-- Generator: Adobe Illustrator 21.1.0, SVG Export Plug-In . SVG Version: 6.00 Build 0)  -->
<svg version="1.1" id="Capa_1" xmlns="http://www.w3.org/2000/svg" xmlns:xlink="http://www.w3.org/1999/xlink" x="0px" y="0px"
	 viewBox="0 0 508.6 508.6" style="enable-background:new 0 0 508.6 508.6;" xml:space="preserve">
<style type="text/css">
	.st0{fill:#D2A0A4;}
</style>
<g>
	<g>
		<g>
			<g>
				<path class="st0" d="M263.4,0.1L261,0c-5.2,0-11.3,1.6-18.1,5.8c0,0-132.5,115.6-138.3,121.3H31.8C14.2,127.1,0,141.4,0,158.9
					v194.7c0,17.6,14.2,31.8,31.8,31.8h72.8c5.8,5.7,138.3,117.2,138.3,117.2c6.9,4.2,12.9,5.8,18.1,5.8l2.4-0.1
					c11.8-1.1,20.1-11,22.7-21.4V21.5C283.6,11,275.1,1.2,263.4,0.1z M254.3,470.8C204.7,429,132.9,368.3,127,362.9
					c-5.9-6-14-9.2-22.4-9.2H31.8v-4V158.9h72.8c8.1,0,16.3-3.4,22.2-9c5.8-5.5,77.6-68.3,127.5-111.8L254.3,470.8L254.3,470.8z"/>
				<path class="st0" d="M448,254.3l54.8-54.9c7.6-7.6,7.6-19.9,0-27.4c-7.5-7.6-19.9-7.6-27.4,0l-54.9,54.9L365.7,172
					c-7.5-7.6-19.9-7.6-27.4,0c-7.6,7.6-7.6,19.9,0,27.4l54.9,54.9l-54.9,54.9c-7.6,7.5-7.6,19.9,0,27.4c7.5,7.6,19.9,7.6,27.4,0
					l54.9-54.9l54.9,54.9c7.5,7.6,19.9,7.6,27.4,0c7.6-7.5,7.6-19.9,0-27.4L448,254.3z"/>
			</g>
		</g>
	</g>
</g>
</svg>
